<svg width="285" height="67" viewBox="0 0 285 67" fill="none" xmlns="http://www.w3.org/2000/svg">
<path fill-rule="evenodd" clip-rule="evenodd" d="M79.6682 52.1595C79.5745 52.2036 79.4674 52.2422 79.3461 52.2748C79.2263 52.3068 79.0967 52.3314 78.961 52.3494C78.8238 52.3674 78.685 52.3765 78.5442 52.3765C78.2195 52.3752 77.9292 52.3264 77.6757 52.2282C77.4227 52.13 77.2076 51.9891 77.032 51.8057C76.8564 51.6223 76.7232 51.4018 76.631 51.1447C76.5399 50.8866 76.4938 50.5975 76.4938 50.2773C76.4951 49.9335 76.545 49.6288 76.6428 49.3618C76.7417 49.0956 76.883 48.8696 77.0648 48.6863C77.2486 48.5018 77.4673 48.3625 77.7218 48.2668C77.9778 48.1711 78.2615 48.1235 78.5754 48.1235C78.7987 48.1248 79.0005 48.1456 79.1828 48.1856C79.3645 48.2257 79.5202 48.2774 79.6523 48.3405L79.8188 47.7903C79.7578 47.7582 79.6708 47.7246 79.5571 47.6885C79.4439 47.6534 79.3026 47.6224 79.1352 47.5979C78.9677 47.5723 78.7736 47.5593 78.5519 47.5582C78.1361 47.5595 77.7592 47.6254 77.4186 47.7567C77.0781 47.8875 76.7852 48.0744 76.5383 48.316C76.2921 48.5584 76.102 48.8466 75.9684 49.1824C75.8343 49.5181 75.7667 49.89 75.7656 50.3003C75.7682 50.7288 75.8343 51.1071 75.9659 51.4364C76.098 51.7656 76.2828 52.0422 76.5199 52.2667C76.7575 52.4912 77.0361 52.6616 77.3552 52.7768C77.6747 52.8916 78.0229 52.9498 78.4013 52.9498C78.618 52.9485 78.8171 52.9357 78.9994 52.9112C79.1802 52.8866 79.3394 52.854 79.4767 52.8154C79.6139 52.7768 79.7251 52.7368 79.8105 52.6942L79.6682 52.1595ZM85.9535 49.8589H83.8795V48.2087H86.0723V47.6434H83.1908V52.8646H86.1911V52.2988H83.8795V50.4166H85.9535V49.8589ZM90.6166 52.8646H91.313V48.2167H92.944V47.6434H88.9938V48.2167H90.6166V52.8646ZM96.0549 47.6434V52.849C96.1696 52.8646 96.3175 52.8786 96.4983 52.8916C96.6791 52.9032 96.8901 52.9096 97.1313 52.9112C97.3796 52.9125 97.6208 52.8916 97.8584 52.8515C98.096 52.8115 98.3162 52.7473 98.5205 52.6581C98.7254 52.5674 98.9005 52.4476 99.047 52.2988C99.175 52.165 99.2753 52.0062 99.348 51.8227C99.4208 51.6393 99.4577 51.4263 99.4586 51.1833C99.456 50.8957 99.4008 50.6491 99.2912 50.4422C99.1817 50.2357 99.0301 50.0678 98.8401 49.9375C98.6485 49.8057 98.4299 49.7105 98.1831 49.6484C97.9363 49.5862 97.6761 49.5567 97.4006 49.5567C97.3386 49.5567 97.2659 49.558 97.184 49.5618C97.1026 49.5644 97.0232 49.5698 96.9438 49.5748C96.865 49.5814 96.7974 49.5879 96.7436 49.5954V47.6436L96.0549 47.6434ZM96.7436 50.1299C96.8317 50.1185 96.9254 50.1079 97.0248 50.1014C97.1236 50.0949 97.2173 50.0913 97.3054 50.0913C97.4969 50.0901 97.6792 50.1104 97.8507 50.152C98.0217 50.1931 98.1738 50.2592 98.307 50.3479C98.4401 50.4386 98.5446 50.5549 98.6209 50.6993C98.6977 50.8425 98.7371 51.017 98.7381 51.2224C98.7368 51.4208 98.6987 51.5942 98.6234 51.74C98.5482 51.8874 98.4457 52.0071 98.3136 52.1028C98.1831 52.1986 98.031 52.2682 97.86 52.3144C97.6894 52.361 97.5076 52.3845 97.3135 52.3845C97.1963 52.3845 97.0902 52.3813 96.9981 52.3765C96.907 52.3713 96.8214 52.361 96.7436 52.3454V50.1299ZM114.23 52.8646H114.903L114.57 47.6434H113.691L112.742 50.1685C112.623 50.4968 112.516 50.8065 112.423 51.0971C112.327 51.3872 112.247 51.6649 112.18 51.927H112.156C112.089 51.6574 112.009 51.3758 111.92 51.0856C111.829 50.795 111.728 50.4888 111.618 50.1685L110.707 47.6434H109.828L109.457 52.8646H110.114L110.256 50.6256C110.272 50.3625 110.286 50.0949 110.301 49.8238C110.314 49.5527 110.326 49.2881 110.336 49.031C110.346 48.7745 110.354 48.5354 110.359 48.3174H110.375C110.45 48.6271 110.541 48.9498 110.645 49.2881C110.75 49.6263 110.865 49.9791 110.992 50.347L111.855 52.8335H112.377L113.32 50.3003C113.454 49.9441 113.577 49.6008 113.689 49.2715C113.8 48.9408 113.901 48.6231 113.993 48.3174H114.016C114.015 48.4813 114.016 48.6557 114.02 48.8416C114.023 49.0275 114.029 49.2185 114.038 49.4149C114.046 49.6123 114.055 49.8082 114.065 50.0032C114.075 50.1996 114.085 50.3881 114.095 50.5715L114.23 52.8646ZM121.236 51.2224L121.806 52.8646H122.542L120.721 47.6434H119.89L118.077 52.8646H118.79L119.344 51.2224H121.236ZM119.486 50.6952L120.009 49.1849C120.06 49.026 120.108 48.8671 120.152 48.7098C120.196 48.5509 120.238 48.3946 120.278 48.2397H120.294C120.332 48.3896 120.374 48.5445 120.418 48.7018C120.461 48.8596 120.513 49.022 120.571 49.1924L121.093 50.6952H119.486ZM125.843 47.6434V52.8646H126.532V48.2087H128.677V47.6434H125.843ZM134.543 51.2224L135.113 52.8646H135.849L134.029 47.6434H133.198L131.384 52.8646H132.097L132.651 51.2224H134.543ZM132.794 50.6952L133.316 49.1849C133.368 49.026 133.415 48.8671 133.46 48.7098C133.503 48.5509 133.546 48.3946 133.585 48.2397H133.601C133.64 48.3896 133.682 48.5445 133.725 48.7018C133.769 48.8596 133.82 49.022 133.878 49.1924L134.401 50.6952H132.794ZM139.135 48.4487C139.231 48.3881 139.339 48.3325 139.459 48.2808C139.579 48.2292 139.706 48.1881 139.839 48.157C139.973 48.125 140.107 48.1095 140.243 48.1079C140.437 48.1079 140.606 48.1405 140.748 48.2037C140.891 48.2668 141.002 48.36 141.081 48.4823C141.16 48.6041 141.2 48.7534 141.201 48.9293C141.2 49.0636 141.168 49.1888 141.105 49.3051C141.041 49.4209 140.953 49.5216 140.84 49.6098C140.726 49.6975 140.594 49.7657 140.444 49.8148C140.292 49.8639 140.127 49.8884 139.95 49.89H139.634V50.4011H139.95C140.087 50.4011 140.225 50.4101 140.362 50.4306C140.501 50.4502 140.631 50.4838 140.755 50.5304C140.878 50.5765 140.989 50.6386 141.085 50.7163C141.181 50.7934 141.258 50.8891 141.313 51.0029C141.37 51.1162 141.398 51.252 141.399 51.4083C141.399 51.6008 141.351 51.7711 141.256 51.9195C141.163 52.0693 141.024 52.1855 140.842 52.2707C140.66 52.3544 140.436 52.3985 140.172 52.3996C140.025 52.3983 139.879 52.383 139.732 52.3534C139.585 52.3233 139.446 52.2848 139.317 52.2372C139.186 52.1891 139.073 52.1375 138.977 52.0823L138.794 52.609C138.93 52.6892 139.074 52.7533 139.229 52.8039C139.382 52.854 139.54 52.8916 139.702 52.9146C139.865 52.9382 140.027 52.9498 140.188 52.9498C140.384 52.9498 140.576 52.9317 140.763 52.8956C140.95 52.8595 141.124 52.8039 141.288 52.7277C141.452 52.6516 141.595 52.5534 141.719 52.4346C141.845 52.3144 141.941 52.1725 142.012 52.0062C142.082 51.8393 142.118 51.6484 142.119 51.4313C142.117 51.1798 142.061 50.9613 141.95 50.7754C141.84 50.5895 141.687 50.4397 141.492 50.3289C141.297 50.2177 141.074 50.1495 140.821 50.1225V50.1069C141.032 50.0588 141.22 49.9761 141.384 49.8589C141.549 49.7401 141.68 49.5943 141.775 49.4199C141.871 49.247 141.919 49.0521 141.922 48.8361C141.918 48.5665 141.853 48.3365 141.721 48.1465C141.589 47.9571 141.407 47.8113 141.172 47.7106C140.937 47.6098 140.665 47.5593 140.354 47.5582C140.065 47.5595 139.804 47.5968 139.569 47.668C139.336 47.7401 139.127 47.8344 138.945 47.9531L139.135 48.4487ZM145.563 47.6434V52.8646H146.299L147.969 50.2693C148.154 49.9776 148.331 49.6835 148.502 49.3873C148.674 49.0906 148.827 48.799 148.959 48.5109L148.983 48.5189C148.964 48.7369 148.951 48.9548 148.942 49.1733C148.932 49.3928 148.927 49.6223 148.923 49.8614C148.921 50.1014 148.92 50.361 148.92 50.6411V52.8646H149.569V47.6434H148.88L147.154 50.3314C146.96 50.6401 146.781 50.9383 146.615 51.2249C146.45 51.51 146.3 51.7891 146.165 52.0587L146.149 52.0512C146.165 51.8202 146.177 51.5862 146.186 51.3512C146.195 51.1162 146.202 50.8752 146.207 50.6256C146.211 50.3765 146.213 50.1159 146.213 49.8433V47.6434H145.563ZM153.289 47.6434V52.8646H153.978V50.4166H156.558V52.8646H157.255V47.6434H156.558V49.8278H153.978V47.6434H153.289ZM163.129 47.5582C162.772 47.5595 162.442 47.6239 162.141 47.7532C161.84 47.8819 161.579 48.0669 161.356 48.3069C161.133 48.5484 160.961 48.8361 160.838 49.1719C160.716 49.5091 160.653 49.8844 160.652 50.3003C160.653 50.6967 160.712 51.057 160.828 51.3813C160.944 51.705 161.109 51.9841 161.323 52.2176C161.535 52.4517 161.788 52.632 162.08 52.7574C162.373 52.8841 162.696 52.9482 163.05 52.9498C163.323 52.9498 163.584 52.9122 163.831 52.836C164.078 52.7613 164.305 52.6491 164.511 52.4992C164.716 52.3509 164.896 52.165 165.047 51.944C165.199 51.723 165.318 51.4674 165.401 51.1758C165.484 50.8851 165.527 50.5584 165.528 50.1996C165.526 49.8112 165.47 49.4545 165.358 49.1333C165.245 48.8116 165.085 48.5329 164.875 48.2979C164.665 48.0629 164.413 47.881 164.119 47.7532C163.824 47.6254 163.495 47.5593 163.129 47.5582V47.5582ZM163.097 48.1079C163.327 48.1092 163.533 48.1495 163.715 48.2292C163.898 48.3084 164.056 48.4166 164.193 48.5559C164.328 48.6953 164.442 48.8541 164.532 49.035C164.621 49.216 164.689 49.4068 164.733 49.6108C164.777 49.8148 164.799 50.0217 164.799 50.2307C164.799 50.5288 164.761 50.809 164.686 51.0701C164.611 51.3306 164.5 51.5606 164.355 51.7596C164.208 51.958 164.03 52.1144 163.818 52.2282C163.605 52.3404 163.363 52.3971 163.09 52.3996C162.872 52.3983 162.675 52.361 162.496 52.2873C162.318 52.2126 162.159 52.1094 162.022 51.9761C161.885 51.8433 161.769 51.6884 161.674 51.5115C161.58 51.3331 161.509 51.1407 161.46 50.9332C161.412 50.7253 161.387 50.5093 161.387 50.2848C161.387 50.0538 161.41 49.8318 161.456 49.6188C161.501 49.4043 161.57 49.2054 161.661 49.0235C161.751 48.8401 161.866 48.6812 162.003 48.5445C162.14 48.4076 162.299 48.3004 162.481 48.2242C162.665 48.1481 162.869 48.1095 163.097 48.1079V48.1079ZM168.94 52.849C169.054 52.8646 169.202 52.8786 169.381 52.8916C169.561 52.9032 169.771 52.9096 170.008 52.9112C170.443 52.9112 170.813 52.8721 171.118 52.7924C171.423 52.7122 171.668 52.5895 171.853 52.4231C171.99 52.2953 172.098 52.1455 172.18 51.9726C172.26 51.7992 172.302 51.6018 172.304 51.3772C172.303 51.1833 172.268 51.0119 172.204 50.8631C172.138 50.7138 172.052 50.5855 171.944 50.4788C171.835 50.3715 171.718 50.2838 171.589 50.2151C171.461 50.148 171.332 50.0989 171.203 50.0678V50.0523C171.392 49.9841 171.553 49.8925 171.688 49.7777C171.823 49.6624 171.925 49.5306 171.997 49.3823C172.069 49.234 172.105 49.0751 172.106 48.9057C172.104 48.7008 172.065 48.5199 171.989 48.366C171.911 48.2127 171.803 48.0849 171.663 47.9842C171.553 47.8965 171.428 47.8238 171.288 47.7687C171.15 47.7131 170.99 47.6715 170.81 47.6445C170.631 47.6173 170.427 47.6043 170.198 47.6043C170.036 47.6043 169.878 47.6101 169.725 47.6189C169.57 47.6279 169.427 47.6404 169.292 47.6575C169.159 47.673 169.041 47.6925 168.94 47.7131V52.849ZM169.628 48.1701C169.682 48.157 169.757 48.1465 169.855 48.1375C169.953 48.1285 170.081 48.1235 170.238 48.1235C170.471 48.1222 170.676 48.1506 170.851 48.2087C171.027 48.2658 171.163 48.357 171.26 48.4823C171.358 48.6076 171.408 48.773 171.409 48.9759C171.409 49.1448 171.363 49.2946 171.272 49.4264C171.181 49.5582 171.049 49.6614 170.878 49.7361C170.705 49.8112 170.498 49.8498 170.254 49.8509H169.628V48.1701ZM169.628 50.3625H170.198C170.388 50.3625 170.565 50.3805 170.731 50.4191C170.896 50.4577 171.043 50.5173 171.169 50.5985C171.296 50.6802 171.395 50.7834 171.466 50.9112C171.537 51.039 171.574 51.1914 171.576 51.3692C171.574 51.5581 171.536 51.718 171.462 51.8483C171.388 51.9791 171.286 52.0834 171.159 52.162C171.029 52.2412 170.884 52.2978 170.721 52.3324C170.557 52.3674 170.386 52.3855 170.206 52.3845C170.084 52.3845 169.972 52.3813 169.875 52.378C169.779 52.3722 169.695 52.3649 169.628 52.3534V50.3625ZM182.025 47.6434L183.916 50.0448C183.709 50.0703 183.531 50.1194 183.378 50.1946C183.226 50.2683 183.096 50.3635 182.984 50.4797C182.875 50.5975 182.779 50.7318 182.698 50.8851C182.616 51.039 182.542 51.2079 182.476 51.3927C182.419 51.5551 182.364 51.7195 182.312 51.8844C182.259 52.0498 182.206 52.2136 182.146 52.378C182.088 52.5419 182.021 52.7047 181.945 52.8646H182.65C182.708 52.7473 182.761 52.6165 182.81 52.4747C182.86 52.3324 182.906 52.1906 182.949 52.0457C182.993 51.9014 183.035 51.7656 183.077 51.6404C183.139 51.461 183.206 51.3011 183.279 51.1562C183.352 51.013 183.439 50.8907 183.54 50.7884C183.641 50.6862 183.767 50.6075 183.915 50.5534C184.062 50.4993 184.242 50.4708 184.455 50.4708H184.692V52.8646H185.365V50.4708H185.595C185.807 50.4708 185.986 50.4993 186.134 50.5534C186.282 50.6075 186.407 50.6862 186.508 50.7884C186.609 50.8907 186.694 51.013 186.766 51.1562C186.838 51.3011 186.904 51.461 186.964 51.6404C187.009 51.7656 187.053 51.9014 187.098 52.0457C187.143 52.1906 187.191 52.3324 187.241 52.4747C187.291 52.6165 187.346 52.7473 187.407 52.8646H188.112C188.039 52.7047 187.973 52.5419 187.916 52.378C187.858 52.2136 187.803 52.0487 187.75 51.8819C187.698 51.7155 187.641 51.5501 187.581 51.3847C187.517 51.1989 187.444 51.0285 187.364 50.8736C187.283 50.7187 187.188 50.5845 187.078 50.4682C186.968 50.352 186.836 50.2578 186.683 50.1856C186.53 50.113 186.349 50.0668 186.14 50.0448L188.033 47.6434H187.225L185.579 49.9596H185.365V47.6434H184.692V49.9596H184.486L182.832 47.6434H182.025ZM194.081 49.8589H192.007V48.2087H194.2V47.6434H191.318V52.8646H194.318V52.2988H192.007V50.4166H194.081V49.8589ZM197.73 47.6434V52.8646H198.419V50.4166H201V52.8646H201.696V47.6434H201V49.8278H198.419V47.6434H197.73ZM208.995 52.1595C208.901 52.2036 208.794 52.2422 208.673 52.2748C208.553 52.3068 208.424 52.3314 208.288 52.3494C208.151 52.3674 208.012 52.3765 207.871 52.3765C207.547 52.3752 207.256 52.3264 207.003 52.2282C206.75 52.13 206.535 51.9891 206.359 51.8057C206.183 51.6223 206.05 51.4018 205.958 51.1447C205.867 50.8866 205.821 50.5975 205.821 50.2773C205.822 49.9335 205.872 49.6288 205.97 49.3618C206.069 49.0956 206.21 48.8696 206.392 48.6863C206.576 48.5018 206.794 48.3625 207.049 48.2668C207.305 48.1711 207.588 48.1235 207.902 48.1235C208.126 48.1248 208.327 48.1456 208.51 48.1856C208.692 48.2257 208.847 48.2774 208.979 48.3405L209.146 47.7903C209.085 47.7582 208.998 47.7246 208.884 47.6885C208.771 47.6534 208.63 47.6224 208.462 47.5979C208.295 47.5723 208.101 47.5593 207.879 47.5582C207.463 47.5595 207.086 47.6254 206.746 47.7567C206.405 47.8875 206.112 48.0744 205.865 48.316C205.619 48.5584 205.429 48.8466 205.295 49.1824C205.161 49.5181 205.094 49.89 205.093 50.3003C205.095 50.7288 205.161 51.1071 205.293 51.4364C205.425 51.7656 205.61 52.0422 205.847 52.2667C206.085 52.4912 206.363 52.6616 206.682 52.7768C207.002 52.8916 207.35 52.9498 207.728 52.9498C207.945 52.9485 208.144 52.9357 208.326 52.9112C208.507 52.8866 208.666 52.854 208.804 52.8154C208.941 52.7768 209.052 52.7368 209.138 52.6942L208.995 52.1595ZM212.518 47.6434V52.8646H213.198V50.4708H213.42C213.644 50.4708 213.837 50.4993 213.999 50.5549C214.161 50.6115 214.298 50.6902 214.411 50.7934C214.523 50.8957 214.619 51.0185 214.699 51.1603C214.779 51.302 214.848 51.4599 214.909 51.6328C214.956 51.7711 215.005 51.9119 215.055 52.0553C215.105 52.1996 215.158 52.3404 215.213 52.4787C215.269 52.6155 215.328 52.7443 215.392 52.8646H216.136C216.058 52.7097 215.987 52.5519 215.922 52.3935C215.859 52.2332 215.796 52.0703 215.737 51.9029C215.678 51.735 215.614 51.5632 215.55 51.3847C215.481 51.2079 215.406 51.044 215.323 50.8932C215.24 50.7418 215.141 50.6075 215.027 50.4902C214.914 50.3725 214.778 50.2748 214.619 50.1971C214.46 50.1194 214.273 50.0668 214.054 50.0368L216.072 47.6434H215.241L213.412 49.9596H213.198V47.6434H212.518ZM221.487 47.5582C221.129 47.5595 220.8 47.6239 220.499 47.7532C220.198 47.8819 219.937 48.0669 219.714 48.3069C219.491 48.5484 219.319 48.8361 219.196 49.1719C219.074 49.5091 219.01 49.8844 219.009 50.3003C219.011 50.6967 219.07 51.057 219.186 51.3813C219.302 51.705 219.467 51.9841 219.681 52.2176C219.893 52.4517 220.146 52.632 220.438 52.7574C220.731 52.8841 221.054 52.9482 221.408 52.9498C221.681 52.9498 221.942 52.9122 222.189 52.836C222.436 52.7613 222.663 52.6491 222.869 52.4992C223.074 52.3509 223.254 52.165 223.405 51.944C223.557 51.723 223.676 51.4674 223.759 51.1758C223.842 50.8851 223.885 50.5584 223.885 50.1996C223.884 49.8112 223.828 49.4545 223.716 49.1333C223.603 48.8116 223.443 48.5329 223.233 48.2979C223.023 48.0629 222.771 47.881 222.477 47.7532C222.182 47.6254 221.853 47.5593 221.487 47.5582ZM221.455 48.1079C221.685 48.1092 221.891 48.1495 222.073 48.2292C222.256 48.3084 222.414 48.4166 222.551 48.5559C222.686 48.6953 222.8 48.8541 222.889 49.035C222.979 49.216 223.047 49.4068 223.091 49.6108C223.135 49.8148 223.157 50.0217 223.157 50.2307C223.157 50.5288 223.119 50.809 223.044 51.0701C222.969 51.3306 222.858 51.5606 222.713 51.7596C222.566 51.958 222.388 52.1144 222.176 52.2282C221.963 52.3404 221.72 52.3971 221.447 52.3996C221.23 52.3983 221.033 52.361 220.853 52.2873C220.676 52.2126 220.517 52.1094 220.38 51.9761C220.243 51.8433 220.127 51.6884 220.032 51.5115C219.938 51.3331 219.867 51.1407 219.818 50.9332C219.77 50.7253 219.745 50.5093 219.745 50.2848C219.745 50.0538 219.768 49.8318 219.814 49.6188C219.859 49.4043 219.928 49.2054 220.019 49.0235C220.109 48.8401 220.224 48.6812 220.361 48.5445C220.498 48.4076 220.657 48.3004 220.839 48.2242C221.022 48.1481 221.227 48.1095 221.455 48.1079V48.1079ZM227.298 47.6434V52.8646H228.034L229.704 50.2693C229.889 49.9776 230.065 49.6835 230.237 49.3873C230.408 49.0906 230.562 48.799 230.694 48.5109L230.717 48.5189C230.699 48.7369 230.685 48.9548 230.676 49.1733C230.667 49.3928 230.662 49.6223 230.658 49.8614C230.655 50.1014 230.655 50.361 230.655 50.6411V52.8646H231.303V47.6434H230.615L228.889 50.3314C228.695 50.6401 228.516 50.9383 228.349 51.2249C228.184 51.51 228.034 51.7891 227.9 52.0587L227.884 52.0512C227.9 51.8202 227.911 51.5862 227.921 51.3512C227.93 51.1162 227.936 50.8752 227.942 50.6256C227.945 50.3765 227.947 50.1159 227.947 49.8433V47.6434H227.298ZM228.287 46.543C228.3 46.7148 228.344 46.8622 228.419 46.9874C228.494 47.1128 228.604 47.2079 228.746 47.2766C228.889 47.3438 229.068 47.3783 229.284 47.3798C229.509 47.3786 229.694 47.3448 229.841 47.2776C229.989 47.211 230.101 47.1152 230.179 46.9915C230.255 46.8662 230.3 46.7164 230.314 46.543H229.783C229.774 46.6296 229.754 46.7098 229.725 46.7835C229.695 46.8572 229.647 46.9163 229.58 46.9614C229.514 47.0065 229.42 47.0301 229.3 47.0311C229.177 47.0298 229.084 47.0055 229.017 46.9604C228.951 46.9138 228.903 46.8532 228.874 46.7795C228.845 46.7059 228.827 46.6271 228.817 46.543H228.287ZM243.897 47.5582C243.54 47.5595 243.21 47.6239 242.909 47.7532C242.608 47.8819 242.347 48.0669 242.124 48.3069C241.901 48.5484 241.73 48.8361 241.607 49.1719C241.484 49.5091 241.421 49.8844 241.42 50.3003C241.421 50.6967 241.48 51.057 241.596 51.3813C241.713 51.705 241.878 51.9841 242.091 52.2176C242.304 52.4517 242.557 52.632 242.848 52.7574C243.141 52.8841 243.465 52.9482 243.818 52.9498C244.091 52.9498 244.352 52.9122 244.599 52.836C244.846 52.7613 245.073 52.6491 245.279 52.4992C245.485 52.3509 245.664 52.165 245.815 51.944C245.968 51.723 246.086 51.4674 246.169 51.1758C246.252 50.8851 246.295 50.5584 246.296 50.1996C246.294 49.8112 246.238 49.4545 246.126 49.1333C246.014 48.8116 245.853 48.5329 245.643 48.2979C245.433 48.0629 245.181 47.881 244.887 47.7532C244.593 47.6254 244.263 47.5593 243.897 47.5582V47.5582ZM243.865 48.1079C244.095 48.1092 244.301 48.1495 244.483 48.2292C244.666 48.3084 244.825 48.4166 244.961 48.5559C245.096 48.6953 245.21 48.8541 245.3 49.035C245.389 49.216 245.457 49.4068 245.502 49.6108C245.545 49.8148 245.568 50.0217 245.568 50.2307C245.568 50.5288 245.529 50.809 245.454 51.0701C245.379 51.3306 245.268 51.5606 245.123 51.7596C244.977 51.958 244.798 52.1144 244.586 52.2282C244.373 52.3404 244.131 52.3971 243.858 52.3996C243.64 52.3983 243.443 52.361 243.264 52.2873C243.086 52.2126 242.927 52.1094 242.791 51.9761C242.653 51.8433 242.537 51.6884 242.442 51.5115C242.348 51.3331 242.277 51.1407 242.228 50.9332C242.181 50.7253 242.156 50.5093 242.156 50.2848C242.156 50.0538 242.178 49.8318 242.224 49.6188C242.269 49.4043 242.338 49.2054 242.429 49.0235C242.52 48.8401 242.634 48.6812 242.772 48.5445C242.908 48.4076 243.068 48.3004 243.249 48.2242C243.433 48.1481 243.638 48.1095 243.865 48.1079V48.1079ZM250.372 47.6434V48.9679C250.372 49.266 250.365 49.5452 250.347 49.8032C250.33 50.0613 250.303 50.3029 250.266 50.5288C250.229 50.7534 250.18 50.9668 250.12 51.1678C250.055 51.3733 249.977 51.5707 249.884 51.7621C249.793 51.9515 249.697 52.1364 249.597 52.3144L249.193 52.3299L249.241 54.1194H249.779L249.827 52.8646H253.191L253.239 54.1194H253.777L253.824 52.3299L253.357 52.3144V47.6434H250.372ZM251.014 48.2011H252.669V52.3068H250.309C250.39 52.166 250.469 52.0112 250.546 51.8433C250.622 51.6739 250.688 51.4985 250.745 51.3151C250.84 51.021 250.907 50.6967 250.951 50.3429C250.993 49.9892 251.014 49.6033 251.014 49.1849V48.2011ZM259.975 49.8589H257.901V48.2087H260.094V47.6434H257.212V52.8646H260.213V52.2988H257.901V50.4166H259.975V49.8589ZM263.189 47.6434L265.081 50.0448C264.874 50.0703 264.696 50.1194 264.543 50.1946C264.391 50.2683 264.261 50.3635 264.149 50.4797C264.04 50.5975 263.944 50.7318 263.862 50.8851C263.78 51.039 263.707 51.2079 263.64 51.3927C263.584 51.5551 263.528 51.7195 263.477 51.8844C263.424 52.0498 263.37 52.2136 263.311 52.378C263.252 52.5419 263.185 52.7047 263.11 52.8646H263.815C263.873 52.7473 263.925 52.6165 263.974 52.4747C264.025 52.3324 264.071 52.1906 264.114 52.0457C264.158 51.9014 264.2 51.7656 264.242 51.6404C264.304 51.461 264.371 51.3011 264.444 51.1562C264.517 51.013 264.604 50.8907 264.705 50.7884C264.807 50.6862 264.932 50.6075 265.08 50.5534C265.227 50.4993 265.407 50.4708 265.62 50.4708H265.857V52.8646H266.53V50.4708H266.76C266.972 50.4708 267.151 50.4993 267.299 50.5534C267.447 50.6075 267.572 50.6862 267.673 50.7884C267.774 50.8907 267.86 51.013 267.931 51.1562C268.003 51.3011 268.069 51.461 268.129 51.6404C268.174 51.7656 268.219 51.9014 268.264 52.0457C268.308 52.1906 268.356 52.3324 268.406 52.4747C268.456 52.6165 268.511 52.7473 268.572 52.8646H269.277C269.204 52.7047 269.138 52.5419 269.081 52.378C269.024 52.2136 268.968 52.0487 268.916 51.8819C268.863 51.7155 268.806 51.5501 268.747 51.3847C268.682 51.1989 268.609 51.0285 268.529 50.8736C268.448 50.7187 268.353 50.5845 268.243 50.4682C268.133 50.352 268.001 50.2578 267.848 50.1856C267.695 50.113 267.514 50.0668 267.305 50.0448L269.198 47.6434H268.39L266.744 49.9596H266.53V47.6434H265.857V49.9596H265.651L263.996 47.6434H263.189ZM273.148 47.6434V48.9679C273.148 49.266 273.14 49.5452 273.123 49.8032C273.106 50.0613 273.078 50.3029 273.041 50.5288C273.004 50.7534 272.955 50.9668 272.895 51.1678C272.83 51.3733 272.752 51.5707 272.66 51.7621C272.569 51.9515 272.472 52.1364 272.372 52.3144L271.969 52.3299L272.016 54.1194H272.554L272.602 52.8646H275.966L276.014 54.1194H276.552L276.6 52.3299L276.132 52.3144V47.6434H273.148ZM273.789 48.2011H275.444V52.3068H273.085C273.165 52.166 273.245 52.0112 273.321 51.8433C273.397 51.6739 273.463 51.4985 273.52 51.3151C273.615 51.021 273.682 50.6967 273.726 50.3429C273.768 49.9892 273.789 49.6033 273.789 49.1849V48.2011ZM279.988 47.6434V52.849C280.102 52.8646 280.25 52.8786 280.43 52.8916C280.609 52.9032 280.819 52.9096 281.056 52.9112C281.299 52.9125 281.537 52.8916 281.773 52.8515C282.008 52.8115 282.227 52.7473 282.43 52.6581C282.634 52.5674 282.81 52.4476 282.956 52.2988C283.084 52.165 283.185 52.0062 283.257 51.8237C283.33 51.6418 283.366 51.4304 283.368 51.1914C283.365 50.9007 283.31 50.6526 283.202 50.4452C283.092 50.2382 282.942 50.0693 282.752 49.9375C282.56 49.8073 282.343 49.7105 282.096 49.6484C281.849 49.5862 281.587 49.5567 281.31 49.5567C281.251 49.5567 281.182 49.558 281.104 49.5618C281.026 49.5644 280.948 49.5698 280.872 49.5748C280.796 49.5814 280.73 49.5879 280.676 49.5954V47.6436L279.988 47.6434ZM280.676 50.1299C280.721 50.121 280.791 50.113 280.887 50.1039C280.983 50.0964 281.095 50.0913 281.222 50.0913C281.402 50.0901 281.578 50.1104 281.746 50.152C281.915 50.1931 282.067 50.2592 282.203 50.3479C282.338 50.4372 282.446 50.5519 282.525 50.6952C282.606 50.8386 282.646 51.0119 282.647 51.2144C282.647 51.4119 282.608 51.5837 282.533 51.7311C282.459 51.8769 282.355 51.9996 282.224 52.0964C282.093 52.1921 281.943 52.2642 281.773 52.3133C281.603 52.361 281.422 52.3845 281.231 52.3845C281.113 52.3845 281.008 52.3813 280.918 52.3765C280.827 52.3713 280.746 52.361 280.676 52.3454V50.1299ZM283.961 47.6434V52.8646H284.658V47.6434H283.961Z" fill="black"/>
<path fill-rule="evenodd" clip-rule="evenodd" d="M24.7442 49.7919C26.8168 50.5271 27.7245 52.4953 26.8009 54.1439C26.6888 53.4205 26.6087 51.9366 24.6886 51.1458C23.415 50.6218 22.1739 51.1157 21.9476 52.2451C21.9528 53.4628 23.0504 53.1334 22.784 54.0346C21.8053 56.1818 18.9515 54.3275 20.397 51.84C18.7371 53.2609 19.4854 54.9593 20.8443 55.5202C20.9293 56.977 18.862 56.8509 18.3036 55.5132C17.8405 54.4049 18.1211 52.8667 18.0474 52.7365C17.1269 53.6251 17.4473 54.6259 17.8941 55.3337C16.7695 56.0873 14.7724 55.1148 15.8119 53.4148C14.5553 53.8272 12.9183 53.2049 12.4141 52.3153C13.6664 52.5817 14.6544 52.4607 15.2315 52.1873C18.7551 50.8468 20.5829 48.3156 24.7442 49.7919V49.7919Z" fill="black"/>
<path fill-rule="evenodd" clip-rule="evenodd" d="M5.10998 54.7198C3.25928 54.4612 0.439319 52.5039 0.887383 49.4566C1.35375 46.2849 3.79609 46.3349 4.07027 44.4701C4.27827 43.0557 3.19034 42.1679 1.16707 42.1754C4.7811 40.397 7.27179 44.6527 5.57143 46.5163C6.884 46.0018 7.64724 46.6193 7.63097 47.1213C7.59083 48.3539 6.18111 48.5692 4.19385 48.7994C4.48475 49.1212 4.59462 49.6168 4.5306 50.0521C4.32943 51.4203 2.66179 50.8066 2.53382 51.6773C2.44232 52.2994 3.33615 53.7461 5.18692 54.0046C6.59008 54.2006 9.33277 53.262 10.5732 51.9119C8.55609 52.1529 7.58362 50.9864 7.70247 50.1781C7.85793 49.1207 8.54691 48.8642 9.26475 48.8064C8.72729 47.5886 9.73689 46.527 10.8217 46.6785C11.651 46.7944 12.1489 47.5273 12.8235 47.8117C12.9241 47.1278 13.1983 46.5443 14.1421 46.5796C15.4185 46.7579 14.9806 47.6658 16.8309 47.9242C18.0731 48.0978 20.7378 47.6096 23.3134 49.0921C21.0104 48.5793 18.9561 48.4768 16.7821 48.6539C15.1913 48.6973 14.9494 46.9215 13.8983 47.2149C13.1771 47.3723 13.4113 48.4156 14.0267 48.6381C13.5413 48.777 13.0553 48.6095 12.5905 48.339C11.6936 47.8175 10.8422 46.9615 9.99795 47.513C9.35914 48.1051 9.90185 49.032 10.952 49.73C10.3855 49.6589 8.27456 48.8176 8.34061 50.2672C8.34193 51.5967 11.1916 51.7061 11.9041 51.2729C11.1899 53.3234 7.267 55.0211 5.10998 54.7198Z" fill="black"/>
<path fill-rule="evenodd" clip-rule="evenodd" d="M22.983 32.2148C22.5307 31.7804 22.2831 31.354 22.3348 30.9817C22.5975 28.3585 25.3211 28.8617 26.1719 30.145C25.2491 29.5876 23.7103 29.18 23.3997 30.6312C23.391 32.2516 25.3087 31.7753 25.9931 31.0069C25.8208 31.7786 24.3655 33.0571 26.1382 33.5668C27.0056 33.821 27.5216 32.9561 27.5626 32.131C27.5794 31.7937 27.5607 31.5258 27.4681 31.3526C27.1306 31.3093 26.5051 30.9294 26.5313 30.4029C26.5462 30.1036 26.7577 29.4216 27.9093 29.4909C28.5553 29.5059 29.2042 29.8251 29.1693 30.5276C29.1431 31.0538 28.4825 31.3731 28.1554 31.3851C28.0171 31.5474 28.0036 31.8138 27.9868 32.1511C27.9457 32.9762 28.351 33.8846 29.2585 33.7143C31.0742 33.3742 29.7274 31.9633 29.6464 31.1796C30.2597 32.0093 32.1211 32.6644 32.2715 31.0507C32.111 29.5772 30.5453 29.8379 29.5529 30.3048C30.5254 29.1077 33.2926 28.8641 33.3018 31.5002C33.3025 31.875 33.0316 32.2769 32.5112 32.6653C33.8082 32.905 35.548 34.5397 35.144 36.3232C34.5097 39.1228 28.7195 39.0494 27.3038 41.5041C25.7597 38.8586 20.3571 38.4822 19.9988 35.6072C19.7729 33.7963 21.6889 32.3321 22.983 32.2148V32.2148ZM28.8528 39.0487C30.4418 38.4045 31.666 35.1542 29.4414 34.3588C32.803 33.6014 32.722 38.9078 28.8528 39.0487ZM32.1177 37.8909C33.1261 36.9465 33.849 34.3332 30.9935 33.7214C33.8377 32.4214 35.8124 36.7458 32.1177 37.8909ZM27.3939 39.2286L27.4336 39.2635L27.4734 39.2323C30.0236 37.3597 28.8088 34.7485 27.6765 34.3461C26.5096 34.6399 25.0415 37.1241 27.3939 39.2286V39.2286ZM26.0068 38.9142C24.4884 38.123 23.6035 34.7731 25.87 34.1899C22.598 33.1189 22.169 38.4089 26.0068 38.9142ZM22.8576 37.4531C21.9585 36.4186 21.4839 33.7486 24.3823 33.4088C21.713 31.8482 19.3053 35.9654 22.8576 37.4531Z" fill="black"/>
<path fill-rule="evenodd" clip-rule="evenodd" d="M24.8426 4.53884C24.3576 4.51588 23.8815 5.12504 23.9246 4.2585C24.04 1.93953 28.8793 2.7835 28.2593 6.57732C27.6076 5.29125 25.6569 4.45901 24.8426 4.53884Z" fill="black"/>
<path fill-rule="evenodd" clip-rule="evenodd" d="M30.5407 2.81249C30.5088 3.8648 29.6942 4.66286 29.6984 5.0469C29.726 5.51832 29.605 6.12125 29.2376 6.46319C28.8144 6.00889 28.8919 5.55552 28.9134 5.12221C28.9663 4.05843 28.3199 4.02753 28.3924 2.56986C28.4453 1.50608 29.2865 0.936271 29.5356 0C29.6753 0.812038 30.5824 1.43373 30.5407 2.81249Z" fill="black"/>
<path fill-rule="evenodd" clip-rule="evenodd" d="M33.7483 4.95851C34.2333 4.98146 34.6467 5.63269 34.6899 4.76614C34.8053 2.44717 29.9049 2.83068 30.1453 6.66516C30.9216 5.44658 32.9458 4.80226 33.7483 4.95851Z" fill="black"/>
<path fill-rule="evenodd" clip-rule="evenodd" d="M22.0361 26.8962C17.6768 23.2191 11.8202 26.0447 11.7305 31.5968C11.5605 42.1205 27.7801 46.2055 35.704 41.9067C38.7936 40.2304 41.9353 38.2345 41.9966 34.4386C42.1372 25.7302 16.4088 23.7841 16.5476 15.194C16.6459 9.10061 23.6707 7.0393 28.7563 7.11736C32.3141 7.17193 39.222 8.70464 39.1481 13.2768C39.1049 15.9547 35.7052 16.6928 33.6924 15.4854C33.4828 15.3599 33.3576 15.2539 33.3598 15.1217C33.3611 15.0463 33.4495 14.9344 33.6266 14.7677C33.6367 14.7487 33.6565 14.7395 33.6757 14.7307C33.6949 14.7219 33.7149 14.7026 33.7343 14.6843C33.7542 14.6655 33.7739 14.6563 33.7833 14.6473C33.7933 14.6384 33.7934 14.6285 33.7934 14.6285L33.9366 14.7438C35.1691 15.7368 38.0301 15.9845 38.0661 13.7601C38.1314 9.71398 31.2793 7.82595 28.1167 7.77741C24.1025 7.71582 18.1448 9.16279 18.0653 14.0853C17.9607 20.5629 39.2484 24.1126 42.2437 29.3291C43.0017 30.6491 43.3615 32.0254 43.3387 33.4403C43.305 35.5249 42.5384 37.466 41.0379 39.2636C33.6971 48.0391 10.49 46.6879 10.7165 32.6661C10.7997 27.5168 15.541 22.8015 20.9322 25.1627C21.7777 25.5247 22.1974 25.9179 22.1906 26.3423C22.19 26.3986 22.1381 26.5865 22.0361 26.8962V26.8962Z" fill="black"/>
<path fill-rule="evenodd" clip-rule="evenodd" d="M48.8446 40.0968C48.9813 39.6956 49.1073 39.2616 49.2212 38.8024C49.4487 38.6091 49.7082 38.4199 49.9723 38.2565C49.629 38.9469 49.2494 39.5689 48.8446 40.0968V40.0968ZM49.8021 34.7139C49.9049 32.3888 49.6201 30.0001 48.7054 28.2062C49.6714 27.3651 50.1394 26.2995 50.1462 25.2361C50.6339 25.8756 51.025 26.6343 51.2939 27.5463C51.8959 29.5888 51.8305 32.0106 51.3429 34.2773C50.8123 34.234 50.2972 34.3526 49.8021 34.7139V34.7139ZM48.4325 27.7397C48.1105 27.1838 47.2339 26.3344 47.4184 26.0055C47.9839 24.7028 48.9735 26.1426 48.4325 27.7397ZM44.5426 24.0782C40.4329 22.2195 34.7306 22.107 31.5 18.5293C35.2734 21.5616 41.5848 21.0552 46.1526 22.5953C45.2122 22.922 44.7145 23.2382 44.5426 24.0782Z" fill="black"/>
<path fill-rule="evenodd" clip-rule="evenodd" d="M9.17368 26.9937C10.2304 25.2384 12.2058 23.1771 12.503 21.2261C12.634 20.3673 12.1131 19.8441 11.3538 19.8942C10.2153 19.9698 10.2764 20.9908 10.5003 21.6157C8.7546 21.0861 9.11536 18.4866 10.9251 17.9652C13.363 17.2635 14.5409 19.4834 14.3434 21.2603C14.0115 24.244 8.63588 28.0819 8.41404 32.5393C8.28187 35.1964 9.67172 38.2826 11.4045 40.4521C14.9513 44.8947 22.8824 47.0017 28.7414 47.0803C34.7121 46.5341 37.4895 45.2944 41.3666 42.693C43.6886 41.1351 49.4619 34.9907 44.7038 28.3855C40.6198 22.7159 24.1394 21.7383 21.5124 15.6533C18.8855 9.56817 28.9176 7.11488 33.6145 11.8212C26.4275 8.25167 23.5868 12.0082 23.3413 14.049C23.0959 16.0899 24.8631 17.5979 26.4989 18.6317C26.2576 18.3554 26.0677 16.7268 27.1579 16.2954C28.2687 15.8555 29.7701 17.1044 28.3765 18.0187C27.3731 18.1568 27.6701 18.7934 28.8169 19.6144C31.1601 21.2906 44.5818 24.7484 45.0404 25.7144C45.0979 21.7084 51.4374 23.5539 48.8674 27.3015C49.4716 25.0887 47.6771 24.5229 47.0636 25.26C46.1338 26.377 47.1565 27.4997 47.5498 28.4626C48.502 30.7916 49.3964 33.6538 48.7568 36.8147C50.1845 32.3384 60.4056 39.0622 66.9992 29.6015C60.9898 39.0113 54.0587 35.6056 49.8894 37.7102C48.8031 38.259 47.7161 40.2174 47.5469 41.0621C49.619 39.6123 54.1425 40.8633 55.3055 40.6026C56.2739 40.3849 56.0473 39.228 54.942 39.5978C56.1898 38.9754 56.9008 40.0894 56.4529 41.2841C55.8649 42.8501 53.7086 42.5009 53.0157 42.2372C50.2291 41.1761 48.6258 41.082 46.6808 42.9666C48.1005 42.2263 49.7586 42.9089 50.282 43.9403C50.7169 44.7953 50.2591 45.9239 49.2898 46.3962C49.8411 45.4422 49.3642 44.0351 47.7432 44.0153C45.8841 43.9924 42.9298 46.2188 40.356 46.5645C32.5829 47.6107 28.6358 51.4802 29.8267 57.2223C32.214 57.0778 30.2165 54.9892 34.4083 53.7297C35.4057 56.7132 33.9564 60.0871 29.8574 59.7755C30.3424 60.6573 33.2341 59.6181 33.2 60.304C33.1351 61.6089 30.0092 60.4532 29.6046 63.4172C29.3252 66.4352 32.874 66.6321 35.1931 66.0136C37.5122 65.3951 37.3758 61.8386 39.2116 62.8479C37.0151 62.3004 38.2296 66.0745 34.308 66.8063C30.3864 67.538 28.5481 66.1452 28.4195 63.4933C28.0979 60.4455 24.8661 61.2505 24.9327 59.9132C24.9668 59.2272 27.8078 60.6052 28.378 59.7733C24.2673 59.6968 23.0938 56.1311 24.3828 53.2557C28.4299 54.9048 26.0597 56.7869 28.4214 57.1559C29.4383 49.4143 24.716 48.8923 16.2604 46.3344C12.6547 45.2433 6.88514 39.2739 4.97114 41.4851C3.84964 39.4853 6.78669 38.3196 8.18119 39.5662C6.43242 37.5069 5.49937 35.7003 4.94183 35.3142C3.75139 34.4912 2.86641 35.2527 2.77688 36.1589C0.295897 35.1285 0.501463 32.827 2.2625 32.0554C3.67051 31.4378 5.28914 31.9371 7.03424 33.7631C6.78072 31.2056 6.20855 29.9951 4.09424 28.8723C2.78422 28.1764 -0.0160664 29.0377 6.94354e-05 27.3457C0.94795 28.7134 2.67907 25.8196 4.73986 26.1758C6.62146 26.5005 7.14312 27.5805 7.42221 29.4849C8.71177 26.6263 8.52063 24.8805 7.66399 24.4309C7.07818 24.1228 5.8089 24.4665 6.14893 25.5508C4.58605 23.6528 7.21921 22.8811 8.10176 23.4389C9.38187 24.2473 9.33281 25.1222 9.17368 26.9937V26.9937Z" fill="black"/>
<path fill-rule="evenodd" clip-rule="evenodd" d="M34.112 50.2334C31.9761 50.7696 30.8772 52.6429 31.6329 54.3709C31.8162 53.6616 32.0433 52.1922 34.0329 51.5863C35.3525 51.1849 36.5388 51.7934 36.6519 52.9389C36.526 54.1504 35.4661 53.7191 35.6417 54.6411C36.4027 56.8706 39.4272 55.2942 38.2354 52.682C39.7465 54.2528 38.8331 55.8726 37.4248 56.3027C37.1956 57.7446 39.2657 57.8141 39.9544 56.5355C40.5253 55.476 40.3987 53.9185 40.4851 53.7959C41.3129 54.7672 40.8947 55.7331 40.3797 56.3955C41.4242 57.2515 43.5084 56.4719 42.6427 54.6819C43.8525 55.2109 45.5435 54.7459 46.1337 53.9081C44.8608 54.0551 43.8894 53.8415 43.3423 53.5149C39.9683 51.8483 38.4003 49.1566 34.112 50.2334V50.2334Z" fill="black"/>
<path fill-rule="evenodd" clip-rule="evenodd" d="M53.1647 56.9909C55.0325 56.9081 58.0335 55.226 57.8901 52.1507C57.7408 48.9498 55.3049 48.7693 55.2172 46.8874C55.1506 45.4601 56.3216 44.679 58.3346 44.8773C54.9141 42.7663 52.0126 46.7671 53.5199 48.7825C52.2646 48.1465 51.4435 48.6891 51.41 49.1902C51.3275 50.4208 52.7092 50.7682 54.6644 51.1847C54.3428 51.4775 54.1843 51.9605 54.2048 52.3998C54.2692 53.7806 55.9899 53.3271 56.0309 54.2057C56.0602 54.8335 55.0269 56.1891 53.1592 56.2718C51.7432 56.3345 49.1065 55.1416 48.006 53.6809C49.9896 54.111 51.0734 53.0417 51.0354 52.226C50.9856 51.1588 50.3253 50.8386 49.6166 50.7133C50.2724 49.552 49.3729 48.4 48.2782 48.4486C47.4412 48.4856 46.8729 49.1682 46.1732 49.3876C46.141 48.6975 45.9261 48.0908 44.9832 48.0369C43.6951 48.0939 44.0408 49.0389 42.1735 49.1216C40.9199 49.1771 38.3162 48.4399 35.6055 49.6724C37.9486 49.3792 40.0035 49.4711 42.1497 49.8524C43.7286 50.0457 44.1457 48.301 45.1628 48.6922C45.8649 48.9169 45.5283 49.9332 44.8936 50.0967C45.363 50.2806 45.8634 50.1598 46.3528 49.9343C47.2973 49.4999 48.2296 48.7283 49.0152 49.3569C49.5923 50.0065 48.96 50.8777 47.8455 51.4735C48.4164 51.4561 50.6009 50.8179 50.3913 52.2545C50.2577 53.5776 47.4108 53.4177 46.7448 52.9193C47.252 55.0275 50.9879 57.0874 53.1647 56.9909V56.9909Z" fill="black"/>
<path fill-rule="evenodd" clip-rule="evenodd" d="M94.1877 37.6943C94.1877 39.5334 93.3401 40.7217 91.642 41.2546C90.5156 41.606 88.9325 41.7821 86.8964 41.7821H76.3856C75.6758 41.7821 75.3209 41.4253 75.3209 40.7132V40.3742C75.3209 39.6613 75.6758 39.3046 76.3856 39.3046H86.8964C89.7305 39.3046 91.1447 38.7852 91.1447 37.7468V36.3166C91.1447 35.2073 89.7433 34.6528 86.936 34.6528H82.9225C77.8272 34.6528 75.2812 33.337 75.2812 30.7096V29.4728C75.2812 27.7173 76.1195 26.5209 77.8001 25.8782C78.878 25.4644 80.4833 25.2575 82.6208 25.2575H84.1686C84.8869 25.2575 85.2468 25.6089 85.2468 26.3136V26.6519C85.2468 27.3659 84.8869 27.7219 84.1686 27.7219H82.5855C79.7427 27.7219 78.3236 28.2983 78.3236 29.4469V30.5952C78.3236 31.3172 78.953 31.7835 80.2083 31.9996C80.71 32.0828 81.5958 32.1268 82.8693 32.1268H86.936C88.7454 32.1268 90.2799 32.3776 91.5353 32.8747C93.3048 33.5793 94.1877 34.6925 94.1877 36.2156V37.6943ZM116.327 33.478L116.3 33.8259C116.247 34.4987 115.892 34.8338 115.231 34.8338H100.618V37.5534C100.618 38.7197 101.918 39.3046 104.516 39.3046H115.231C115.945 39.3046 116.3 39.6613 116.3 40.3742V40.7132C116.3 41.4253 115.945 41.7821 115.231 41.7821H104.37C104.033 41.7821 103.611 41.7559 103.111 41.7028C99.4201 41.329 97.5756 39.9778 97.5756 37.6582V29.4728C97.5756 27.9242 98.4796 26.776 100.289 26.0192C101.506 25.5126 102.95 25.2575 104.632 25.2575H107.594C108.303 25.2575 108.659 25.6089 108.659 26.3136V26.6519C108.659 27.3659 108.303 27.7219 107.594 27.7219H104.516L103.669 27.7747C101.607 27.9026 100.578 28.4702 100.578 29.4728V32.356H115.245C116.016 32.356 116.375 32.7294 116.327 33.478ZM140.014 31.4316C140.014 32.8307 139.3 33.8875 137.867 34.5915C136.683 35.1772 135.153 35.4669 133.281 35.4669H128.274L138.426 39.7361C138.962 39.9561 139.233 40.3037 139.233 40.7788C139.233 41.4569 138.825 41.7913 138.009 41.7821C137.335 41.7821 136.771 41.7516 136.324 41.6897L122.473 35.8152V40.7132C122.473 41.4253 122.114 41.7821 121.395 41.7821H120.496C119.785 41.7821 119.431 41.4253 119.431 40.7132V26.3136C119.431 25.6089 119.785 25.2575 120.496 25.2575H132.723C134.621 25.2575 136.182 25.5037 137.401 25.9927C139.144 26.6878 140.014 27.836 140.014 29.4338V31.4316ZM136.971 31.4579V29.3718C136.971 28.2714 135.552 27.7219 132.709 27.7219H122.473V33.0029H133.255C135.733 33.0029 136.971 32.4881 136.971 31.4579V31.4579ZM163.514 37.5795C163.514 39.0849 162.761 40.2069 161.252 40.9467C160.108 41.5051 158.689 41.7821 156.991 41.7821H150.094C148.28 41.7821 146.764 41.5267 145.531 41.0207C143.841 40.3257 142.998 39.1948 142.998 37.632V29.3545C142.998 27.8803 143.867 26.7799 145.61 26.0585C146.892 25.5257 148.395 25.2575 150.116 25.2575H152.862C153.571 25.2575 153.926 25.6089 153.926 26.3136V26.6519C153.926 27.3659 153.571 27.7219 152.862 27.7219H150.276C147.451 27.7219 146.041 28.2679 146.041 29.3587V37.615C146.041 38.7417 147.407 39.3046 150.134 39.3046H156.991C157.625 39.3046 158.308 39.1859 159.043 38.9439C159.997 38.6361 160.472 38.2176 160.472 37.6943V33.4164C160.472 32.7121 160.831 32.3606 161.55 32.3606H162.45C163.16 32.3606 163.514 32.7121 163.514 33.4164V37.5795ZM170.122 40.7132C170.122 41.4253 169.763 41.7821 169.045 41.7821H168.144C167.435 41.7821 167.08 41.4253 167.08 40.7132V26.3136C167.08 25.6089 167.435 25.2575 168.144 25.2575H169.045C169.763 25.2575 170.122 25.6089 170.122 26.3136V40.7132ZM194.311 40.0181C194.311 40.7834 194.111 41.3028 193.712 41.5795C193.424 41.7779 192.954 41.8746 192.293 41.8746C192.031 41.8746 191.725 41.7474 191.37 41.4923C191.318 41.4569 191.162 41.3332 190.9 41.109L176.735 29.1391V40.7132C176.735 41.4253 176.376 41.7821 175.658 41.7821H174.757C174.047 41.7821 173.693 41.4253 173.693 40.7132V26.3359C173.693 25.966 173.954 25.6312 174.474 25.3326C174.708 25.1958 174.966 25.125 175.254 25.125C175.667 25.125 176.132 25.2702 176.642 25.5657C176.886 25.7018 177.099 25.8474 177.28 26.0015L191.269 37.8258V26.3136C191.269 25.6089 191.628 25.2575 192.346 25.2575H193.233C193.952 25.2575 194.311 25.6089 194.311 26.3136V40.0181ZM218.504 40.0181C218.504 40.7834 218.304 41.3028 217.905 41.5795C217.616 41.7779 217.147 41.8746 216.485 41.8746C216.224 41.8746 215.918 41.7474 215.563 41.4923C215.51 41.4569 215.355 41.3332 215.093 41.109L200.928 29.1391V40.7132C200.928 41.4253 200.569 41.7821 199.85 41.7821H198.95C198.24 41.7821 197.885 41.4253 197.885 40.7132V26.3359C197.885 25.966 198.147 25.6312 198.666 25.3326C198.901 25.1958 199.158 25.125 199.446 25.125C199.859 25.125 200.325 25.2702 200.835 25.5657C201.078 25.7018 201.291 25.8474 201.473 26.0015L215.461 37.8258V26.3136C215.461 25.6089 215.821 25.2575 216.539 25.2575H217.425C218.144 25.2575 218.504 25.6089 218.504 26.3136V40.0181ZM240.825 33.478L240.798 33.8259C240.745 34.4987 240.39 34.8338 239.729 34.8338H225.116V37.5534C225.116 38.7197 226.416 39.3046 229.014 39.3046H239.729C240.444 39.3046 240.798 39.6613 240.798 40.3742V40.7132C240.798 41.4253 240.444 41.7821 239.729 41.7821H228.868C228.531 41.7821 228.11 41.7559 227.608 41.7028C223.919 41.329 222.073 39.9778 222.073 37.6582V29.4728C222.073 27.9242 222.979 26.776 224.788 26.0192C226.003 25.5126 227.449 25.2575 229.13 25.2575H232.092C232.802 25.2575 233.157 25.6089 233.157 26.3136V26.6519C233.157 27.3659 232.802 27.7219 232.092 27.7219H229.014L228.168 27.7747C226.105 27.9026 225.076 28.4702 225.076 29.4728V32.356H239.743C240.514 32.356 240.874 32.7294 240.825 33.478V33.478ZM261.012 26.6519C261.012 27.3659 260.654 27.7219 259.935 27.7219H253.207V40.7132C253.207 41.4253 252.852 41.7821 252.142 41.7821H251.242C250.533 41.7821 250.178 41.4253 250.178 40.7132V27.7219H243.485C242.767 27.7219 242.408 27.3659 242.408 26.6519V26.3136C242.408 25.6089 242.767 25.2575 243.485 25.2575H259.935C260.654 25.2575 261.012 25.6089 261.012 26.3136V26.6519ZM279.852 26.6519C279.852 27.3659 279.493 27.7219 278.774 27.7219H272.047V40.7132C272.047 41.4253 271.692 41.7821 270.982 41.7821H270.081C269.372 41.7821 269.017 41.4253 269.017 40.7132V27.7219H262.325C261.607 27.7219 261.247 27.3659 261.247 26.6519V26.3136C261.247 25.6089 261.607 25.2575 262.325 25.2575H278.774C279.493 25.2575 279.852 25.6089 279.852 26.3136V26.6519ZM284.655 40.7132C284.655 41.4253 284.296 41.7821 283.577 41.7821H282.677C281.967 41.7821 281.613 41.4253 281.613 40.7132V26.3136C281.613 25.6089 281.967 25.2575 282.677 25.2575H283.577C284.296 25.2575 284.655 25.6089 284.655 26.3136V40.7132Z" fill="black"/>
</svg>
