<svg width="285" height="67" viewBox="0 0 285 67" fill="none" xmlns="http://www.w3.org/2000/svg">
<path fill-rule="evenodd" clip-rule="evenodd" d="M24.7442 49.7919C26.8168 50.5271 27.7245 52.4953 26.8009 54.1439C26.6888 53.4205 26.6087 51.9366 24.6886 51.1458C23.415 50.6218 22.1739 51.1157 21.9476 52.2451C21.9528 53.4628 23.0504 53.1334 22.784 54.0346C21.8053 56.1818 18.9515 54.3275 20.397 51.84C18.7371 53.2609 19.4854 54.9593 20.8443 55.5202C20.9293 56.977 18.862 56.8509 18.3036 55.5132C17.8405 54.4049 18.1211 52.8667 18.0474 52.7365C17.1269 53.6251 17.4473 54.6259 17.8941 55.3337C16.7695 56.0873 14.7724 55.1148 15.8119 53.4148C14.5553 53.8272 12.9183 53.2049 12.4141 52.3153C13.6664 52.5817 14.6544 52.4607 15.2315 52.1873C18.7551 50.8468 20.5829 48.3156 24.7442 49.7919Z" fill="white"/>
<path fill-rule="evenodd" clip-rule="evenodd" d="M5.10998 54.7198C3.25928 54.4612 0.439319 52.5039 0.887383 49.4566C1.35375 46.2849 3.79609 46.3349 4.07027 44.4701C4.27826 43.0557 3.19034 42.1679 1.16707 42.1754C4.7811 40.397 7.27179 44.6527 5.57143 46.5163C6.884 46.0018 7.64724 46.6193 7.63097 47.1213C7.59083 48.3539 6.18111 48.5692 4.19385 48.7994C4.48475 49.1212 4.59462 49.6168 4.5306 50.0521C4.32943 51.4203 2.66179 50.8066 2.53382 51.6773C2.44232 52.2994 3.33615 53.7461 5.18692 54.0046C6.59008 54.2006 9.33277 53.262 10.5732 51.9119C8.55609 52.1529 7.58362 50.9864 7.70247 50.1781C7.85793 49.1207 8.54691 48.8642 9.26475 48.8064C8.72729 47.5886 9.73689 46.527 10.8217 46.6785C11.651 46.7944 12.1489 47.5273 12.8235 47.8117C12.9241 47.1278 13.1983 46.5443 14.1421 46.5796C15.4185 46.7579 14.9806 47.6658 16.8309 47.9242C18.0731 48.0978 20.7378 47.6096 23.3134 49.0921C21.0104 48.5793 18.9561 48.4768 16.7821 48.6539C15.1913 48.6973 14.9494 46.9215 13.8983 47.2149C13.1771 47.3723 13.4113 48.4156 14.0267 48.6381C13.5413 48.777 13.0553 48.6095 12.5905 48.339C11.6936 47.8175 10.8422 46.9615 9.99795 47.513C9.35914 48.1051 9.90185 49.032 10.952 49.73C10.3855 49.6589 8.27456 48.8176 8.34061 50.2672C8.34193 51.5967 11.1916 51.7061 11.9041 51.2729C11.1899 53.3234 7.267 55.0211 5.10998 54.7198Z" fill="white"/>
<path fill-rule="evenodd" clip-rule="evenodd" d="M22.983 32.2148C22.5307 31.7804 22.2831 31.354 22.3348 30.9817C22.5975 28.3585 25.3211 28.8617 26.1719 30.145C25.2491 29.5876 23.7103 29.18 23.3997 30.6312C23.391 32.2516 25.3087 31.7753 25.9931 31.0069C25.8208 31.7786 24.3655 33.0571 26.1382 33.5668C27.0056 33.821 27.5216 32.9561 27.5626 32.131C27.5794 31.7937 27.5607 31.5258 27.4681 31.3526C27.1306 31.3093 26.5051 30.9294 26.5313 30.4029C26.5462 30.1036 26.7577 29.4216 27.9093 29.4909C28.5553 29.5059 29.2042 29.8251 29.1693 30.5276C29.1431 31.0538 28.4825 31.3731 28.1554 31.3851C28.0171 31.5474 28.0036 31.8138 27.9868 32.1511C27.9457 32.9762 28.351 33.8846 29.2585 33.7143C31.0742 33.3742 29.7274 31.9633 29.6464 31.1796C30.2597 32.0093 32.1211 32.6644 32.2715 31.0507C32.111 29.5772 30.5453 29.8379 29.5529 30.3048C30.5254 29.1077 33.2926 28.8641 33.3018 31.5002C33.3025 31.875 33.0316 32.2769 32.5112 32.6653C33.8082 32.905 35.548 34.5397 35.144 36.3232C34.5097 39.1228 28.7195 39.0494 27.3038 41.5041C25.7597 38.8586 20.3571 38.4822 19.9988 35.6072C19.7729 33.7963 21.6889 32.3321 22.983 32.2148ZM28.8528 39.0487C30.4418 38.4045 31.666 35.1542 29.4414 34.3588C32.803 33.6014 32.722 38.9078 28.8528 39.0487ZM32.1177 37.8909C33.1261 36.9465 33.849 34.3332 30.9935 33.7214C33.8377 32.4214 35.8124 36.7458 32.1177 37.8909ZM27.3939 39.2286L27.4336 39.2635L27.4734 39.2323C30.0236 37.3597 28.8088 34.7485 27.6765 34.3461C26.5096 34.6399 25.0415 37.1241 27.3939 39.2286ZM26.0068 38.9142C24.4884 38.123 23.6035 34.7731 25.87 34.1899C22.598 33.1189 22.169 38.4089 26.0068 38.9142ZM22.8576 37.4531C21.9585 36.4186 21.4839 33.7486 24.3823 33.4088C21.713 31.8482 19.3053 35.9654 22.8576 37.4531Z" fill="white"/>
<path fill-rule="evenodd" clip-rule="evenodd" d="M24.8426 4.53884C24.3576 4.51588 23.8815 5.12504 23.9246 4.2585C24.04 1.93953 28.8793 2.7835 28.2593 6.57732C27.6076 5.29125 25.6569 4.45901 24.8426 4.53884Z" fill="white"/>
<path fill-rule="evenodd" clip-rule="evenodd" d="M30.5407 2.81249C30.5088 3.8648 29.6942 4.66286 29.6984 5.0469C29.726 5.51832 29.605 6.12125 29.2376 6.46319C28.8144 6.00889 28.8919 5.55552 28.9134 5.12221C28.9663 4.05843 28.3199 4.02753 28.3924 2.56986C28.4453 1.50608 29.2865 0.936271 29.5356 0C29.6753 0.812038 30.5824 1.43373 30.5407 2.81249Z" fill="white"/>
<path fill-rule="evenodd" clip-rule="evenodd" d="M33.7483 4.95851C34.2333 4.98146 34.6467 5.63269 34.6899 4.76614C34.8053 2.44717 29.9049 2.83068 30.1453 6.66516C30.9216 5.44658 32.9458 4.80226 33.7483 4.95851Z" fill="white"/>
<path fill-rule="evenodd" clip-rule="evenodd" d="M22.0361 26.8962C17.6768 23.2191 11.8202 26.0447 11.7305 31.5968C11.5605 42.1205 27.7801 46.2055 35.704 41.9067C38.7936 40.2304 41.9353 38.2345 41.9966 34.4386C42.1372 25.7302 16.4088 23.7841 16.5476 15.194C16.6459 9.10061 23.6707 7.0393 28.7563 7.11736C32.3141 7.17193 39.222 8.70464 39.1481 13.2768C39.1049 15.9547 35.7052 16.6928 33.6924 15.4854C33.4828 15.3599 33.3576 15.2539 33.3598 15.1217C33.3611 15.0463 33.4495 14.9344 33.6266 14.7677C33.6367 14.7487 33.6565 14.7395 33.6757 14.7307C33.6949 14.7219 33.7149 14.7026 33.7343 14.6843C33.7542 14.6655 33.7739 14.6563 33.7833 14.6473C33.7933 14.6384 33.7934 14.6285 33.7934 14.6285L33.9366 14.7438C35.1691 15.7368 38.0301 15.9845 38.0661 13.7601C38.1314 9.71398 31.2793 7.82595 28.1167 7.77741C24.1025 7.71582 18.1448 9.16279 18.0653 14.0853C17.9607 20.5629 39.2484 24.1126 42.2437 29.3291C43.0017 30.6491 43.3615 32.0254 43.3387 33.4403C43.305 35.5249 42.5384 37.466 41.0379 39.2636C33.6971 48.0391 10.49 46.6879 10.7165 32.6661C10.7997 27.5168 15.541 22.8015 20.9322 25.1627C21.7777 25.5247 22.1974 25.9179 22.1906 26.3423C22.19 26.3986 22.1381 26.5865 22.0361 26.8962Z" fill="white"/>
<path fill-rule="evenodd" clip-rule="evenodd" d="M48.8446 40.0968C48.9813 39.6956 49.1073 39.2616 49.2212 38.8024C49.4487 38.6091 49.7082 38.4199 49.9723 38.2565C49.629 38.9469 49.2494 39.5689 48.8446 40.0968ZM49.8021 34.7139C49.9049 32.3888 49.6201 30.0001 48.7054 28.2062C49.6714 27.3651 50.1394 26.2995 50.1462 25.2361C50.6339 25.8756 51.025 26.6343 51.2939 27.5463C51.8959 29.5888 51.8305 32.0106 51.3429 34.2773C50.8123 34.234 50.2972 34.3526 49.8021 34.7139ZM48.4325 27.7397C48.1105 27.1838 47.2339 26.3344 47.4184 26.0055C47.9839 24.7028 48.9735 26.1426 48.4325 27.7397ZM44.5426 24.0782C40.4329 22.2195 34.7306 22.107 31.5 18.5293C35.2734 21.5616 41.5848 21.0552 46.1526 22.5953C45.2122 22.922 44.7145 23.2382 44.5426 24.0782Z" fill="white"/>
<path fill-rule="evenodd" clip-rule="evenodd" d="M9.17368 26.9937C10.2304 25.2384 12.2058 23.1771 12.503 21.2261C12.634 20.3673 12.1131 19.8441 11.3538 19.8942C10.2153 19.9698 10.2764 20.9908 10.5003 21.6157C8.7546 21.0861 9.11536 18.4866 10.9251 17.9652C13.363 17.2635 14.5409 19.4834 14.3434 21.2603C14.0115 24.244 8.63588 28.0819 8.41404 32.5393C8.28187 35.1964 9.67172 38.2826 11.4045 40.4521C14.9513 44.8947 22.8824 47.0017 28.7414 47.0803C34.7121 46.5341 37.4895 45.2944 41.3666 42.693C43.6886 41.1351 49.4619 34.9907 44.7038 28.3855C40.6198 22.7159 24.1394 21.7383 21.5124 15.6533C18.8855 9.56817 28.9176 7.11488 33.6145 11.8212C26.4275 8.25167 23.5868 12.0082 23.3413 14.049C23.0959 16.0899 24.8631 17.5979 26.4989 18.6317C26.2576 18.3554 26.0677 16.7268 27.1579 16.2954C28.2687 15.8555 29.7701 17.1044 28.3765 18.0187C27.3731 18.1568 27.6701 18.7934 28.8169 19.6144C31.1601 21.2906 44.5818 24.7484 45.0404 25.7144C45.0979 21.7084 51.4374 23.5539 48.8674 27.3015C49.4716 25.0887 47.6771 24.5229 47.0636 25.26C46.1338 26.377 47.1565 27.4997 47.5498 28.4626C48.502 30.7916 49.3964 33.6538 48.7569 36.8147C50.1845 32.3384 60.4056 39.0622 66.9992 29.6015C60.9898 39.0113 54.0587 35.6056 49.8894 37.7102C48.8031 38.259 47.7161 40.2174 47.5469 41.0621C49.619 39.6123 54.1425 40.8633 55.3055 40.6026C56.2739 40.3849 56.0473 39.228 54.942 39.5978C56.1898 38.9754 56.9008 40.0894 56.4529 41.2841C55.8649 42.8501 53.7086 42.5009 53.0157 42.2372C50.2291 41.1761 48.6258 41.082 46.6808 42.9666C48.1005 42.2263 49.7586 42.9089 50.282 43.9403C50.7169 44.7953 50.2591 45.9239 49.2898 46.3962C49.8411 45.4422 49.3642 44.0351 47.7432 44.0153C45.8841 43.9924 42.9298 46.2188 40.356 46.5645C32.5829 47.6107 28.6358 51.4802 29.8267 57.2223C32.214 57.0778 30.2165 54.9892 34.4083 53.7297C35.4057 56.7132 33.9564 60.0871 29.8574 59.7755C30.3424 60.6573 33.2341 59.6181 33.2 60.304C33.1351 61.6089 30.0092 60.4532 29.6046 63.4172C29.3252 66.4352 32.874 66.6321 35.1931 66.0136C37.5122 65.3951 37.3758 61.8386 39.2116 62.8479C37.0151 62.3004 38.2296 66.0745 34.308 66.8063C30.3864 67.538 28.5481 66.1452 28.4195 63.4933C28.0979 60.4455 24.8661 61.2505 24.9327 59.9132C24.9668 59.2272 27.8078 60.6052 28.378 59.7733C24.2673 59.6968 23.0938 56.1311 24.3828 53.2557C28.4299 54.9048 26.0597 56.7869 28.4214 57.1559C29.4383 49.4143 24.716 48.8923 16.2604 46.3344C12.6547 45.2433 6.88514 39.2739 4.97114 41.4851C3.84964 39.4853 6.78669 38.3196 8.18119 39.5662C6.43242 37.5069 5.49937 35.7003 4.94183 35.3142C3.75139 34.4912 2.86641 35.2527 2.77688 36.1589C0.295897 35.1285 0.501463 32.827 2.2625 32.0554C3.67051 31.4378 5.28914 31.9371 7.03424 33.7631C6.78072 31.2056 6.20855 29.9951 4.09423 28.8723C2.78422 28.1764 -0.0160664 29.0377 6.94354e-05 27.3457C0.94795 28.7134 2.67907 25.8196 4.73986 26.1758C6.62146 26.5005 7.14312 27.5805 7.42221 29.4849C8.71177 26.6263 8.52063 24.8805 7.66399 24.4309C7.07818 24.1228 5.8089 24.4665 6.14893 25.5508C4.58605 23.6528 7.21921 22.8811 8.10176 23.4389C9.38187 24.2473 9.33281 25.1222 9.17368 26.9937Z" fill="white"/>
<path fill-rule="evenodd" clip-rule="evenodd" d="M34.112 50.2334C31.9761 50.7696 30.8772 52.6429 31.6329 54.3709C31.8162 53.6616 32.0433 52.1922 34.0329 51.5863C35.3525 51.1849 36.5388 51.7934 36.6519 52.9389C36.526 54.1504 35.4661 53.7191 35.6417 54.6411C36.4027 56.8706 39.4272 55.2942 38.2354 52.682C39.7465 54.2528 38.8331 55.8726 37.4248 56.3027C37.1956 57.7446 39.2657 57.8141 39.9544 56.5355C40.5253 55.476 40.3987 53.9185 40.4851 53.7959C41.3129 54.7672 40.8947 55.7331 40.3797 56.3955C41.4242 57.2515 43.5084 56.4719 42.6427 54.6819C43.8525 55.2109 45.5435 54.7459 46.1337 53.9081C44.8608 54.0551 43.8894 53.8415 43.3423 53.5149C39.9683 51.8483 38.4003 49.1566 34.112 50.2334Z" fill="white"/>
<path fill-rule="evenodd" clip-rule="evenodd" d="M53.1647 56.9909C55.0325 56.9081 58.0335 55.226 57.8901 52.1507C57.7408 48.9498 55.3049 48.7693 55.2172 46.8874C55.1506 45.4601 56.3216 44.679 58.3346 44.8773C54.9141 42.7663 52.0126 46.7671 53.5199 48.7825C52.2646 48.1465 51.4436 48.6891 51.41 49.1902C51.3275 50.4208 52.7092 50.7682 54.6644 51.1847C54.3428 51.4775 54.1843 51.9605 54.2048 52.3998C54.2692 53.7806 55.9899 53.3271 56.0309 54.2057C56.0602 54.8335 55.0269 56.1891 53.1592 56.2718C51.7432 56.3345 49.1065 55.1416 48.006 53.6809C49.9896 54.111 51.0734 53.0417 51.0354 52.226C50.9856 51.1588 50.3253 50.8386 49.6166 50.7133C50.2724 49.552 49.3729 48.4 48.2782 48.4486C47.4412 48.4856 46.8729 49.1682 46.1732 49.3876C46.141 48.6975 45.9261 48.0908 44.9832 48.0369C43.6951 48.0939 44.0408 49.0389 42.1735 49.1216C40.9199 49.1771 38.3162 48.4399 35.6055 49.6724C37.9486 49.3792 40.0035 49.4711 42.1497 49.8524C43.7286 50.0457 44.1457 48.301 45.1628 48.6922C45.8649 48.9169 45.5283 49.9332 44.8936 50.0967C45.363 50.2806 45.8634 50.1598 46.3528 49.9343C47.2973 49.4999 48.2296 48.7283 49.0152 49.3569C49.5923 50.0065 48.96 50.8777 47.8455 51.4735C48.4164 51.4561 50.601 50.8179 50.3913 52.2545C50.2577 53.5776 47.4108 53.4177 46.7448 52.9193C47.252 55.0275 50.9879 57.0874 53.1647 56.9909Z" fill="white"/>
<path fill-rule="evenodd" clip-rule="evenodd" d="M94.1877 37.6943C94.1877 39.5334 93.3401 40.7217 91.642 41.2546C90.5156 41.606 88.9325 41.7821 86.8964 41.7821H76.3856C75.6758 41.7821 75.3209 41.4253 75.3209 40.7132V40.3742C75.3209 39.6613 75.6758 39.3046 76.3856 39.3046H86.8964C89.7305 39.3046 91.1447 38.7852 91.1447 37.7468V36.3166C91.1447 35.2073 89.7433 34.6528 86.936 34.6528H82.9225C77.8272 34.6528 75.2812 33.337 75.2812 30.7096V29.4728C75.2812 27.7173 76.1195 26.5209 77.8001 25.8782C78.878 25.4644 80.4833 25.2575 82.6208 25.2575H84.1686C84.8869 25.2575 85.2468 25.6089 85.2468 26.3136V26.6519C85.2468 27.3659 84.8869 27.7219 84.1686 27.7219H82.5855C79.7427 27.7219 78.3236 28.2983 78.3236 29.4469V30.5952C78.3236 31.3172 78.953 31.7835 80.2083 31.9996C80.71 32.0828 81.5958 32.1268 82.8693 32.1268H86.936C88.7454 32.1268 90.2799 32.3776 91.5353 32.8747C93.3048 33.5793 94.1877 34.6925 94.1877 36.2156V37.6943ZM116.327 33.478L116.3 33.8259C116.247 34.4987 115.892 34.8338 115.231 34.8338H100.618V37.5534C100.618 38.7197 101.918 39.3046 104.516 39.3046H115.231C115.945 39.3046 116.3 39.6613 116.3 40.3742V40.7132C116.3 41.4253 115.945 41.7821 115.231 41.7821H104.37C104.033 41.7821 103.611 41.7559 103.111 41.7028C99.4201 41.329 97.5756 39.9778 97.5756 37.6582V29.4728C97.5756 27.9242 98.4796 26.776 100.289 26.0192C101.506 25.5126 102.95 25.2575 104.632 25.2575H107.594C108.303 25.2575 108.659 25.6089 108.659 26.3136V26.6519C108.659 27.3659 108.303 27.7219 107.594 27.7219H104.516L103.669 27.7747C101.607 27.9026 100.578 28.4702 100.578 29.4728V32.356H115.245C116.016 32.356 116.375 32.7294 116.327 33.478ZM140.014 31.4316C140.014 32.8307 139.3 33.8875 137.867 34.5915C136.683 35.1772 135.153 35.4669 133.281 35.4669H128.274L138.426 39.7361C138.962 39.9561 139.233 40.3037 139.233 40.7788C139.233 41.4569 138.825 41.7913 138.009 41.7821C137.335 41.7821 136.771 41.7516 136.324 41.6897L122.473 35.8152V40.7132C122.473 41.4253 122.114 41.7821 121.395 41.7821H120.496C119.785 41.7821 119.431 41.4253 119.431 40.7132V26.3136C119.431 25.6089 119.785 25.2575 120.496 25.2575H132.723C134.621 25.2575 136.182 25.5037 137.401 25.9927C139.144 26.6878 140.014 27.836 140.014 29.4338V31.4316ZM136.971 31.4579V29.3718C136.971 28.2714 135.552 27.7219 132.709 27.7219H122.473V33.0029H133.255C135.733 33.0029 136.971 32.4881 136.971 31.4579ZM163.514 37.5795C163.514 39.0849 162.761 40.2069 161.252 40.9467C160.108 41.5051 158.689 41.7821 156.991 41.7821H150.094C148.28 41.7821 146.764 41.5267 145.531 41.0207C143.841 40.3257 142.998 39.1948 142.998 37.632V29.3545C142.998 27.8803 143.867 26.7799 145.61 26.0585C146.892 25.5257 148.395 25.2575 150.116 25.2575H152.862C153.571 25.2575 153.926 25.6089 153.926 26.3136V26.6519C153.926 27.3659 153.571 27.7219 152.862 27.7219H150.276C147.451 27.7219 146.041 28.2679 146.041 29.3587V37.615C146.041 38.7417 147.407 39.3046 150.134 39.3046H156.991C157.625 39.3046 158.308 39.1859 159.043 38.9439C159.997 38.6361 160.472 38.2176 160.472 37.6943V33.4164C160.472 32.7121 160.831 32.3606 161.55 32.3606H162.45C163.16 32.3606 163.514 32.7121 163.514 33.4164V37.5795ZM170.122 40.7132C170.122 41.4253 169.763 41.7821 169.045 41.7821H168.144C167.435 41.7821 167.08 41.4253 167.08 40.7132V26.3136C167.08 25.6089 167.435 25.2575 168.144 25.2575H169.045C169.763 25.2575 170.122 25.6089 170.122 26.3136V40.7132ZM194.311 40.0181C194.311 40.7834 194.111 41.3028 193.712 41.5795C193.424 41.7779 192.954 41.8746 192.293 41.8746C192.031 41.8746 191.725 41.7474 191.37 41.4923C191.318 41.4569 191.162 41.3332 190.9 41.109L176.735 29.1391V40.7132C176.735 41.4253 176.376 41.7821 175.658 41.7821H174.757C174.047 41.7821 173.693 41.4253 173.693 40.7132V26.3359C173.693 25.966 173.954 25.6312 174.474 25.3326C174.708 25.1958 174.966 25.125 175.254 25.125C175.667 25.125 176.132 25.2702 176.642 25.5657C176.886 25.7018 177.099 25.8474 177.28 26.0015L191.269 37.8258V26.3136C191.269 25.6089 191.628 25.2575 192.346 25.2575H193.233C193.952 25.2575 194.311 25.6089 194.311 26.3136V40.0181ZM218.504 40.0181C218.504 40.7834 218.304 41.3028 217.905 41.5795C217.616 41.7779 217.147 41.8746 216.485 41.8746C216.224 41.8746 215.918 41.7474 215.563 41.4923C215.51 41.4569 215.355 41.3332 215.093 41.109L200.928 29.1391V40.7132C200.928 41.4253 200.569 41.7821 199.85 41.7821H198.95C198.24 41.7821 197.885 41.4253 197.885 40.7132V26.3359C197.885 25.966 198.147 25.6312 198.666 25.3326C198.901 25.1958 199.158 25.125 199.446 25.125C199.859 25.125 200.325 25.2702 200.835 25.5657C201.078 25.7018 201.291 25.8474 201.473 26.0015L215.461 37.8258V26.3136C215.461 25.6089 215.821 25.2575 216.539 25.2575H217.425C218.145 25.2575 218.504 25.6089 218.504 26.3136V40.0181ZM240.825 33.478L240.798 33.8259C240.745 34.4987 240.39 34.8338 239.729 34.8338H225.116V37.5534C225.116 38.7197 226.416 39.3046 229.014 39.3046H239.729C240.444 39.3046 240.798 39.6613 240.798 40.3742V40.7132C240.798 41.4253 240.444 41.7821 239.729 41.7821H228.868C228.531 41.7821 228.11 41.7559 227.608 41.7028C223.919 41.329 222.073 39.9778 222.073 37.6582V29.4728C222.073 27.9242 222.979 26.776 224.788 26.0192C226.003 25.5126 227.449 25.2575 229.13 25.2575H232.092C232.802 25.2575 233.157 25.6089 233.157 26.3136V26.6519C233.157 27.3659 232.802 27.7219 232.092 27.7219H229.014L228.168 27.7747C226.105 27.9026 225.076 28.4702 225.076 29.4728V32.356H239.743C240.514 32.356 240.874 32.7294 240.825 33.478ZM261.012 26.6519C261.012 27.3659 260.654 27.7219 259.935 27.7219H253.207V40.7132C253.207 41.4253 252.852 41.7821 252.142 41.7821H251.242C250.533 41.7821 250.178 41.4253 250.178 40.7132V27.7219H243.485C242.767 27.7219 242.408 27.3659 242.408 26.6519V26.3136C242.408 25.6089 242.767 25.2575 243.485 25.2575H259.935C260.654 25.2575 261.012 25.6089 261.012 26.3136V26.6519ZM279.852 26.6519C279.852 27.3659 279.493 27.7219 278.774 27.7219H272.047V40.7132C272.047 41.4253 271.692 41.7821 270.982 41.7821H270.081C269.372 41.7821 269.017 41.4253 269.017 40.7132V27.7219H262.325C261.607 27.7219 261.247 27.3659 261.247 26.6519V26.3136C261.247 25.6089 261.607 25.2575 262.325 25.2575H278.774C279.493 25.2575 279.852 25.6089 279.852 26.3136V26.6519ZM284.655 40.7132C284.655 41.4253 284.296 41.7821 283.577 41.7821H282.677C281.967 41.7821 281.613 41.4253 281.613 40.7132V26.3136C281.613 25.6089 281.967 25.2575 282.677 25.2575H283.577C284.296 25.2575 284.655 25.6089 284.655 26.3136V40.7132Z" fill="white"/>
</svg>
