<svg width="26" height="16" viewBox="0 0 26 16" fill="none" xmlns="http://www.w3.org/2000/svg">
<g clip-path="url(#clip0_1528_18135)">
<path fill-rule="evenodd" clip-rule="evenodd" d="M16.394 2.34183L17.9915 0.751441L25.1917 7.89417L17.9922 15.0488L16.3933 13.4598L20.8884 8.99267L-0.468749 8.99267L-0.468749 6.79308L20.8811 6.79308L16.394 2.34183Z" fill="white"/>
<path fill-rule="evenodd" clip-rule="evenodd" d="M-0.468749 8.99267L-0.468749 6.79308L20.8811 6.79308L16.394 2.34183L17.9915 0.751441L25.1917 7.89417L17.9922 15.0488L16.3933 13.4598L20.8884 8.99267L-0.468749 8.99267ZM16.677 13.4598L21.3734 8.79267L-0.268749 8.79267L-0.268749 6.99308L21.3666 6.99308L16.6777 2.34158L17.9918 1.0334L24.9078 7.89429L17.9922 14.7669L16.677 13.4598Z" fill="white"/>
</g>
<defs>
<clipPath id="clip0_1528_18135">
<rect width="25.0502" height="14.1" fill="white" transform="matrix(1 9.84153e-08 3.10632e-07 -1 0 15.0488)"/>
</clipPath>
</defs>
</svg>
